<svg xmlns="http://www.w3.org/2000/svg" xmlns:xlink="http://www.w3.org/1999/xlink" width="500" zoomAndPan="magnify" viewBox="0 0 375 374.999991" height="500" preserveAspectRatio="xMidYMid meet" version="1.0"><defs><g/><clipPath id="e2fecd6fd5"><path d="M 200 24.464844 L 342 24.464844 L 342 133 L 200 133 Z M 200 24.464844 " clip-rule="nonzero"/></clipPath><clipPath id="4692f1de5c"><path d="M 292 297 L 338 297 L 338 350.714844 L 292 350.714844 Z M 292 297 " clip-rule="nonzero"/></clipPath></defs><g fill="#000000" fill-opacity="1"><g transform="translate(156.858349, 192.362119)"><g><path d="M 8.6875 -4.0625 C 8.6875 -2.726562 8.421875 -1.691406 7.890625 -0.953125 C 7.359375 -0.210938 6.59375 0.15625 5.59375 0.15625 C 5.03125 0.15625 4.539062 0.03125 4.125 -0.21875 C 3.707031 -0.46875 3.382812 -0.828125 3.15625 -1.296875 L 3.140625 -1.296875 C 3.140625 -1.117188 3.128906 -0.878906 3.109375 -0.578125 C 3.085938 -0.273438 3.0625 -0.0820312 3.03125 0 L 1 0 C 1.039062 -0.457031 1.0625 -1.070312 1.0625 -1.84375 L 1.0625 -11.046875 L 3.15625 -11.046875 L 3.15625 -7.96875 L 3.125 -6.65625 L 3.15625 -6.65625 C 3.625 -7.6875 4.484375 -8.203125 5.734375 -8.203125 C 6.679688 -8.203125 7.410156 -7.835938 7.921875 -7.109375 C 8.429688 -6.390625 8.6875 -5.375 8.6875 -4.0625 Z M 6.515625 -4.0625 C 6.515625 -4.96875 6.378906 -5.640625 6.109375 -6.078125 C 5.835938 -6.523438 5.421875 -6.75 4.859375 -6.75 C 4.296875 -6.75 3.863281 -6.507812 3.5625 -6.03125 C 3.269531 -5.5625 3.125 -4.878906 3.125 -3.984375 C 3.125 -3.128906 3.269531 -2.460938 3.5625 -1.984375 C 3.851562 -1.515625 4.28125 -1.28125 4.84375 -1.28125 C 5.957031 -1.28125 6.515625 -2.207031 6.515625 -4.0625 Z M 6.515625 -4.0625 "/></g></g></g><g clip-path="url(#e2fecd6fd5)"><path fill="#252a30" d="M 286.199219 24.464844 C 290.140625 25.683594 294.144531 26.660156 297.96875 28.203125 C 302.296875 29.921875 305.882812 32.859375 308.878906 36.476562 C 313.058594 41.578125 314.957031 47.570312 315.28125 54.035156 C 315.429688 57.0625 315.195312 60.117188 314.898438 63.140625 C 314.777344 64.566406 314.957031 65.097656 316.46875 65.542969 C 326.339844 68.300781 334.257812 73.820312 338.585938 83.339844 C 347.773438 103.65625 337.695312 125.839844 316.410156 131.417969 C 299.214844 135.925781 281.398438 125.515625 276.566406 108.460938 C 276.503906 108.222656 276.535156 107.957031 276.742188 107.601562 C 277.214844 108.519531 277.601562 109.46875 278.164062 110.328125 C 285.011719 121.332031 294.828125 127.085938 307.871094 126.046875 C 320.441406 125.039062 332.625 113.117188 331.378906 98.734375 C 331.023438 94.550781 329.246094 90.84375 327.199219 87.164062 C 323.167969 80.019531 310.746094 76.042969 303.039062 78.503906 C 301.585938 78.980469 299.984375 79.097656 298.445312 79.246094 C 296.722656 79.394531 296.425781 78.832031 296.992188 77.230469 C 299.183594 70.824219 301.554688 64.445312 301.792969 57.59375 C 302 52.109375 300.339844 47.125 296.308594 43.390625 C 288.867188 36.476562 277.574219 36.835938 270.25 43.921875 C 266.308594 47.71875 262.867188 51.902344 260.140625 56.644531 C 259.519531 57.683594 258.746094 58.664062 257.917969 59.847656 C 255.722656 58.011719 253.589844 56.351562 251.601562 54.511719 C 242.5 46.175781 229.425781 46.414062 220.652344 52.019531 C 212.914062 56.941406 209.535156 64.089844 209.355469 72.898438 C 209.089844 85.503906 217.0625 95.054688 227.558594 99.265625 C 232.984375 101.460938 238.585938 101.90625 244.339844 101.3125 C 245.585938 101.195312 246.886719 101.285156 248.253906 101.285156 C 237.222656 104.722656 226.550781 105.019531 216.441406 98.761719 C 210.453125 95.054688 206.007812 90.070312 203.277344 83.429688 C 200.105469 75.6875 200.019531 67.976562 202.183594 60.058594 C 205 49.765625 211.9375 43.121094 221.394531 39.027344 C 229.871094 35.351562 238.648438 34.550781 247.511719 37.78125 C 249.972656 38.671875 252.402344 39.769531 254.390625 40.570312 C 258.035156 37.21875 261.59375 33.925781 265.238281 30.785156 C 268.945312 27.550781 273.453125 25.949219 278.164062 24.882812 C 278.519531 24.792969 278.847656 24.613281 279.203125 24.464844 C 281.546875 24.464844 283.886719 24.464844 286.199219 24.464844 Z M 286.199219 24.464844 " fill-opacity="1" fill-rule="nonzero"/></g><path fill="#252a30" d="M 105.714844 287.304688 C 104.734375 289.617188 104.113281 291.515625 103.191406 293.265625 C 97.410156 304.179688 85.851562 308.539062 73.84375 303.945312 C 69.839844 302.429688 66.195312 299.941406 62.398438 297.863281 C 61.71875 297.507812 61.125 297.003906 60.441406 296.527344 C 56.292969 300.445312 51.519531 303.113281 45.855469 303.734375 C 39.542969 304.449219 33.613281 303.46875 29.046875 298.574219 C 24.898438 294.15625 23.800781 288.816406 25.636719 283.035156 C 27.507812 277.132812 31.746094 273.691406 37.703125 272.445312 C 43.753906 271.171875 49.414062 272.238281 54.929688 275.707031 C 56.617188 271.585938 58.25 267.640625 59.878906 263.695312 C 59.761719 263.605469 59.644531 263.519531 59.523438 263.429688 C 57.300781 265.0625 55.078125 266.722656 52.855469 268.351562 C 50.808594 269.867188 50.039062 269.6875 48.761719 267.433594 C 42.242188 255.867188 44.195312 241.363281 53.652344 231.042969 C 64.710938 219.03125 86 215.855469 100.050781 224.160156 C 109.003906 229.441406 113.332031 239.316406 111.109375 249.460938 C 109.921875 254.769531 106.839844 258.683594 102.273438 261.5 C 101.472656 262.003906 100.644531 262.449219 99.636719 263.042969 C 104.46875 268.382812 106.511719 274.640625 106.304688 282.054688 C 106.660156 281.609375 106.808594 281.460938 106.871094 281.3125 C 110.78125 271.4375 114.695312 261.589844 118.578125 251.714844 C 119.113281 250.378906 119.941406 249.84375 121.367188 249.875 C 125.574219 249.933594 129.785156 249.875 133.996094 249.90625 C 136.574219 249.90625 137.226562 250.914062 136.25 253.34375 C 132.542969 262.539062 128.808594 271.703125 125.160156 280.929688 C 124.300781 283.125 123.679688 285.4375 122.9375 287.691406 C 123.144531 287.867188 123.382812 288.046875 123.589844 288.222656 C 124.714844 287.304688 126.167969 286.59375 126.910156 285.4375 C 129.785156 281.078125 132.867188 276.777344 135.09375 272.089844 C 138.207031 265.566406 140.636719 258.714844 143.304688 251.953125 C 143.898438 250.4375 144.757812 249.875 146.359375 249.90625 C 150.566406 249.992188 154.777344 249.90625 158.988281 249.933594 C 161.328125 249.933594 162.011719 250.972656 161.152344 253.136719 C 157.328125 262.6875 153.445312 272.238281 149.679688 281.816406 C 148.789062 284.132812 148.285156 286.5625 147.574219 288.964844 C 147.78125 289.113281 148.019531 289.261719 148.226562 289.410156 C 149.144531 288.875 150.210938 288.550781 150.894531 287.808594 C 153.207031 285.378906 155.757812 283.035156 157.476562 280.214844 C 161.359375 273.808594 164.796875 267.136719 168.386719 260.523438 C 168.621094 260.109375 168.683594 259.367188 168.472656 258.949219 C 165.539062 253.195312 166.132812 249.222656 170.699219 244.683594 C 171.140625 244.238281 171.644531 243.796875 172.148438 243.410156 C 175.558594 240.710938 176.507812 240.621094 180.273438 242.726562 C 185.550781 245.691406 185.222656 244.832031 182.882812 250.289062 C 181.992188 252.335938 182.4375 253.226562 184.1875 254.441406 C 187.386719 256.636719 190.5 258.980469 193.316406 261.648438 C 196.667969 264.824219 197.230469 268.796875 195.511719 273.097656 C 194.058594 276.777344 192.605469 280.453125 191.273438 284.160156 C 190.738281 285.703125 190.5625 287.363281 190.203125 288.964844 C 190.414062 289.085938 190.589844 289.171875 190.796875 289.292969 C 191.6875 288.402344 192.695312 287.632812 193.4375 286.621094 C 197.378906 281.3125 201.203125 276.003906 203.515625 269.65625 C 205.859375 263.222656 209.238281 257.289062 214.78125 252.929688 C 219.050781 249.550781 223.882812 248.09375 229.339844 249.132812 C 232.273438 249.667969 234.585938 251.210938 236.542969 253.375 C 236.71875 253.316406 236.925781 253.316406 236.925781 253.257812 C 237.578125 250.320312 239.566406 249.757812 242.292969 249.933594 C 245.851562 250.171875 249.410156 249.964844 252.996094 249.992188 C 255.605469 249.992188 256.257812 250.972656 255.25 253.433594 C 250.445312 265.269531 245.644531 277.074219 240.839844 288.875 C 240.605469 289.441406 240.394531 290.035156 240.039062 291.011719 C 244.664062 287.929688 248.164062 284.28125 250.949219 280.066406 C 252.996094 276.953125 254.832031 273.660156 256.316406 270.25 C 259.578125 262.6875 263.964844 256.074219 271.375 252.039062 C 277.574219 248.6875 284.125 247.800781 290.914062 249.992188 C 298.472656 252.425781 302 258.683594 300.28125 266.394531 C 298.058594 276.566406 290.5 283.152344 280.09375 283.804688 C 277.070312 284.011719 274.042969 283.835938 271.019531 283.835938 C 270.664062 286.355469 271.761719 288.136719 274.222656 288.875 C 277.363281 289.824219 280.507812 289.5 283.621094 288.640625 C 290.855469 286.59375 296.21875 281.9375 300.074219 275.738281 C 303.128906 270.875 305.5 265.59375 308.109375 260.464844 C 308.316406 260.078125 308.316406 259.425781 308.109375 259.039062 C 305.113281 253.046875 305.945312 248.628906 310.894531 244.238281 C 311.191406 243.972656 311.488281 243.734375 311.785156 243.5 C 315.164062 240.800781 316.171875 240.710938 319.90625 242.816406 C 325.183594 245.78125 324.859375 244.921875 322.515625 250.378906 C 321.65625 252.425781 322.070312 253.316406 323.820312 254.53125 C 327.050781 256.757812 330.222656 259.160156 333.070312 261.855469 C 336.273438 264.914062 336.835938 268.796875 335.203125 272.980469 C 333.632812 277.011719 332.09375 281.078125 330.667969 285.167969 C 330.222656 286.414062 330.136719 287.75 329.898438 289.054688 C 330.074219 289.144531 330.253906 289.261719 330.433594 289.351562 C 331.320312 288.460938 332.359375 287.71875 333.070312 286.683594 C 336.003906 282.410156 338.941406 278.140625 341.636719 273.722656 C 342.734375 271.972656 343.921875 271.554688 345.640625 272.328125 C 346.589844 272.742188 347.507812 273.246094 348.308594 273.871094 C 350.945312 275.945312 351.242188 277.191406 349.40625 279.917969 C 346.085938 284.84375 342.882812 289.914062 339.089844 294.480469 C 335.265625 299.078125 330.285156 302.132812 323.910156 301.835938 C 316.617188 301.542969 311.992188 296.378906 312.289062 289.085938 C 312.496094 284.398438 314.097656 280.097656 315.785156 275.828125 C 316.5 274.019531 317.148438 272.179688 317.949219 270.429688 C 318.78125 268.53125 318.453125 267.046875 316.558594 265.980469 C 314.660156 269.65625 312.820312 273.363281 310.867188 276.984375 C 306.121094 285.671875 299.925781 293.058594 291.003906 297.773438 C 283.648438 301.660156 275.792969 302.785156 267.613281 301.332031 C 261.742188 300.265625 257.144531 297.300781 254.6875 291.398438 C 254.210938 291.785156 253.796875 292.050781 253.46875 292.375 C 248.371094 297.773438 242.265625 301.777344 235.59375 304.894531 C 234.289062 305.484375 233.695312 306.40625 233.101562 307.621094 C 230.9375 312.101562 229.070312 316.785156 226.3125 320.878906 C 221.867188 327.464844 215.34375 330.519531 207.3125 329.125 C 198.445312 327.582031 194.621094 318.359375 199.542969 310.765625 C 201.796875 307.265625 205.085938 305.039062 208.792969 303.261719 C 209.414062 302.964844 210.007812 302.636719 211.164062 302.015625 C 205.53125 301.570312 202.121094 298.871094 200.195312 294.097656 C 198.742188 295.371094 197.46875 296.617188 196.074219 297.746094 C 192.488281 300.679688 188.398438 302.222656 183.683594 301.867188 C 176.65625 301.304688 172.210938 295.996094 172.625 288.9375 C 172.980469 283.152344 175.382812 278.050781 177.367188 272.800781 C 177.664062 272 177.960938 271.230469 178.289062 270.457031 C 179.175781 268.558594 178.792969 267.078125 176.953125 266.039062 C 174.523438 270.605469 172.210938 275.234375 169.628906 279.683594 C 166.042969 285.941406 161.832031 291.785156 156.171875 296.410156 C 153.382812 298.695312 150.359375 300.59375 146.804688 301.363281 C 140.546875 302.726562 135.03125 301.808594 131.417969 295.699219 C 130.289062 296.589844 129.28125 297.476562 128.214844 298.277344 C 124.863281 300.742188 121.160156 302.046875 116.980469 301.898438 C 110.191406 301.660156 105.742188 297.242188 105.535156 290.449219 C 105.714844 289.441406 105.714844 288.609375 105.714844 287.304688 Z M 68.863281 285.644531 C 71.558594 286.800781 74.167969 288.371094 76.984375 289.054688 C 84.8125 290.921875 90.503906 285.289062 88.992188 277.429688 C 88.015625 272.328125 82.738281 267.699219 77.046875 266.988281 C 74.375 273.039062 71.738281 279.058594 68.863281 285.644531 Z M 217.273438 283.332031 C 217.125 286.621094 217.804688 287.1875 219.941406 286.265625 C 222.695312 285.050781 224.800781 283.035156 226.019531 280.277344 C 227.648438 276.539062 229.070312 272.742188 230.671875 269.003906 C 231.382812 267.34375 231.886719 265.625 230.167969 264.496094 C 228.507812 263.429688 227.027344 264.675781 225.929688 265.832031 C 220.976562 271.023438 218.546875 277.398438 217.273438 283.332031 Z M 86.769531 235.222656 C 87.660156 237.894531 88.457031 240.445312 89.378906 242.90625 C 90 244.535156 89.613281 245.484375 88.042969 246.347656 C 84.960938 248.035156 83.328125 250.882812 82.027344 254.085938 C 88.222656 255.242188 94.152344 251.535156 95.128906 246.167969 C 96.046875 241.007812 92.371094 236.082031 86.769531 235.222656 Z M 82.589844 234.839844 C 82.589844 234.691406 82.589844 234.511719 82.589844 234.363281 C 81.226562 234.453125 79.832031 234.511719 78.46875 234.628906 C 70.316406 235.371094 62.84375 241.363281 60.738281 248.867188 C 59.820312 252.1875 60.292969 255.304688 61.867188 258.683594 C 63.199219 255.390625 64.386719 252.425781 65.570312 249.519531 C 68.804688 241.777344 74.140625 236.527344 82.589844 234.839844 Z M 283.679688 263.964844 C 280.328125 263.964844 275.824219 268.292969 274.90625 272.238281 C 279.46875 272.652344 282.820312 269.539062 283.679688 263.964844 Z M 47.546875 286.59375 C 45.382812 285.316406 43.367188 284.339844 41.113281 285.199219 C 40.34375 285.496094 39.839844 286.472656 39.214844 287.128906 C 39.867188 287.75 40.433594 288.699219 41.203125 288.90625 C 43.632812 289.589844 45.53125 288.285156 47.546875 286.59375 Z M 207.992188 317.082031 C 210.71875 316.402344 211.640625 314.679688 212.5 312.902344 C 210.75 313.761719 208.910156 314.503906 207.992188 317.082031 Z M 207.992188 317.082031 " fill-opacity="1" fill-rule="nonzero"/><path fill="#252a30" d="M 191.066406 131.832031 C 185.9375 131.566406 205.800781 132.988281 205.859375 132.988281 C 209.238281 133.285156 212.648438 133.402344 216.027344 133.878906 C 218.726562 134.234375 221.363281 135.003906 224.03125 135.597656 C 225.394531 135.894531 226.757812 136.074219 228.121094 136.429688 C 232.894531 137.703125 237.699219 138.832031 242.382812 140.375 C 246.859375 141.855469 251.632812 143.074219 255.425781 145.652344 C 259.785156 148.617188 265.328125 149.628906 268.828125 153.988281 C 269.984375 155.410156 271.703125 156.359375 273.066406 157.636719 C 275.320312 159.769531 277.574219 161.875 279.617188 164.191406 C 282.703125 167.691406 285.457031 171.425781 286.820312 175.996094 C 287.386719 177.894531 288.125 179.789062 288.273438 181.71875 C 288.542969 185.484375 288.511719 189.28125 288.511719 193.046875 C 288.511719 195.835938 288.097656 196.398438 285.371094 196.667969 C 279.707031 197.230469 274.042969 197.675781 268.382812 197.972656 C 265.980469 198.121094 263.550781 197.675781 261.117188 197.703125 C 257.027344 197.765625 252.90625 198.03125 248.816406 198.121094 C 244.933594 198.210938 241.078125 198.238281 237.195312 198.269531 C 234.824219 198.296875 232.421875 198.296875 230.050781 198.296875 C 223.320312 198.328125 216.558594 198.476562 209.832031 198.355469 C 204.644531 198.269531 199.453125 197.851562 194.238281 197.703125 C 192.636719 197.644531 191.003906 198.089844 189.375 198.121094 C 184.214844 198.179688 179.058594 198.148438 173.871094 198.148438 C 162.457031 198.148438 151.042969 198.210938 139.628906 198.121094 C 128.183594 198.03125 116.742188 197.851562 105.328125 197.585938 C 99.960938 197.46875 94.625 197.050781 89.257812 196.875 C 87.894531 196.816406 87.539062 196.3125 87.421875 195.035156 C 86.769531 187.324219 89.171875 180.414062 93.023438 173.976562 C 100.257812 161.9375 110.425781 152.980469 122.699219 146.363281 C 133.609375 140.460938 145.351562 137.023438 157.445312 134.441406 C 163.582031 133.136719 169.75 132.988281 175.886719 132.246094 C 177.277344 132.070312 178.671875 131.625 180.066406 131.566406 C 183.296875 131.476562 186.527344 131.535156 189.789062 131.535156 M 180.304688 150.664062 C 180.007812 148.765625 178.820312 146.898438 177.339844 146.78125 C 176.6875 146.722656 175.707031 147.226562 175.324219 147.757812 C 174.433594 148.976562 174.964844 151.167969 176.390625 152.238281 C 177.160156 152.800781 178.375 153.484375 179.058594 153.214844 C 179.679688 152.949219 179.886719 151.554688 180.304688 150.664062 Z M 138.355469 156.921875 C 139.65625 156.773438 140.8125 156.09375 141.257812 154.402344 C 141.464844 153.601562 141.820312 152.832031 141.96875 152.03125 C 142.058594 151.527344 142.058594 150.785156 141.761719 150.515625 C 141.4375 150.222656 140.457031 150.101562 140.222656 150.339844 C 138.859375 151.734375 137.40625 153.15625 136.425781 154.816406 C 135.625 156.121094 136.425781 156.953125 138.355469 156.921875 Z M 155.816406 165.464844 C 155.992188 165.820312 156.171875 166.769531 156.644531 166.949219 C 157.089844 167.125 157.921875 166.59375 158.394531 166.175781 C 159.046875 165.644531 159.789062 165.019531 160.023438 164.308594 C 160.320312 163.328125 160.292969 162.203125 160.085938 161.164062 C 160.023438 160.839844 158.867188 160.363281 158.511719 160.542969 C 157.683594 160.988281 156.851562 161.699219 156.40625 162.5 C 155.992188 163.242188 156.050781 164.25 155.816406 165.464844 Z M 159.757812 150.28125 C 162.1875 150.160156 162.753906 148.589844 163.34375 147.195312 C 163.671875 146.453125 163.554688 145.503906 163.640625 144.644531 C 162.8125 144.792969 161.980469 144.882812 161.179688 145.148438 C 160.589844 145.328125 159.789062 145.59375 159.519531 146.070312 C 158.988281 147.015625 158.574219 148.113281 158.484375 149.183594 C 158.453125 149.566406 159.492188 150.042969 159.757812 150.28125 Z M 229.160156 150.132812 C 228.507812 149.421875 227.886719 148.234375 226.9375 147.878906 C 225.75 147.433594 224.535156 148.945312 224.683594 150.546875 C 224.800781 151.761719 225.097656 152.980469 225.574219 154.078125 C 226.046875 155.234375 226.996094 155.292969 227.589844 154.195312 C 228.183594 153.097656 228.507812 151.824219 229.160156 150.132812 Z M 171.765625 165.4375 C 171.585938 165.019531 171.230469 164.25 170.875 163.449219 C 170.195312 163.921875 169.421875 164.339844 168.800781 164.902344 C 168.324219 165.316406 167.761719 165.878906 167.671875 166.445312 C 167.527344 167.480469 167.554688 168.578125 167.851562 169.589844 C 167.941406 169.914062 169.273438 170.269531 169.628906 170.03125 C 170.402344 169.5 170.992188 168.667969 171.4375 167.808594 C 171.734375 167.273438 171.617188 166.535156 171.765625 165.4375 Z M 208.851562 168.074219 C 208.851562 168.046875 209.058594 167.335938 208.792969 166.917969 C 208.289062 166.089844 207.578125 165.316406 206.808594 164.753906 C 206.539062 164.574219 205.414062 164.992188 205.265625 165.375 C 204.9375 166.175781 204.730469 167.246094 205 168.015625 C 205.324219 168.996094 206.09375 169.882812 206.808594 170.683594 C 207.132812 171.070312 207.753906 171.160156 208.257812 171.398438 C 208.527344 170.863281 208.824219 170.328125 209 169.738281 C 209.089844 169.410156 208.941406 168.996094 208.851562 168.074219 Z M 239.0625 170.683594 C 239.449219 172.109375 239.683594 173.234375 240.070312 174.304688 C 240.21875 174.71875 240.722656 175.253906 241.078125 175.28125 C 241.433594 175.28125 241.96875 174.808594 242.175781 174.394531 C 242.621094 173.472656 243.183594 172.464844 243.210938 171.515625 C 243.242188 170.597656 242.738281 169.558594 242.203125 168.757812 C 242.027344 168.460938 240.871094 168.429688 240.484375 168.726562 C 239.863281 169.230469 239.507812 170.0625 239.0625 170.683594 Z M 136.546875 177.152344 C 136.8125 176.945312 137.109375 176.734375 137.375 176.527344 C 138.679688 176.023438 140.132812 175.757812 141.257812 174.984375 C 141.882812 174.570312 142.238281 173.296875 142.179688 172.464844 C 142.148438 172.050781 140.902344 171.515625 140.160156 171.425781 C 138.710938 171.25 135.921875 174.125 136.070312 175.519531 C 136.128906 176.054688 136.367188 176.585938 136.546875 177.152344 Z M 189.671875 178.25 C 191.480469 178.25 194.027344 176.378906 193.496094 175.519531 C 192.992188 174.71875 191.597656 174.183594 190.53125 174.035156 C 188.902344 173.769531 187.210938 175.105469 187.269531 176.351562 C 187.359375 177.980469 188.632812 178.128906 189.671875 178.25 Z M 121.601562 164.695312 C 121.335938 163.390625 121.160156 162.203125 120.832031 161.015625 C 120.714844 160.601562 120.269531 160.246094 120.003906 159.890625 C 119.585938 160.214844 118.933594 160.511719 118.847656 160.898438 C 118.492188 162.382812 118.164062 163.921875 118.164062 165.4375 C 118.164062 166.207031 118.933594 166.976562 119.351562 167.777344 C 120.003906 167.15625 120.714844 166.5625 121.277344 165.851562 C 121.542969 165.554688 121.542969 165.019531 121.601562 164.695312 Z M 223.972656 172.910156 C 222.992188 173.859375 221.984375 174.480469 221.453125 175.371094 C 220.917969 176.292969 220.828125 177.449219 220.5625 178.515625 C 221.511719 178.335938 222.488281 178.1875 223.4375 177.980469 C 223.882812 177.894531 224.476562 177.746094 224.652344 177.449219 C 225.1875 176.558594 225.722656 175.578125 225.839844 174.570312 C 225.871094 174.183594 224.832031 173.652344 223.972656 172.910156 Z M 207.371094 150.101562 C 206.628906 149.003906 206.007812 147.90625 205.175781 147.015625 C 205 146.808594 203.515625 147.3125 203.488281 147.582031 C 203.398438 148.765625 203.308594 150.101562 203.753906 151.140625 C 204.109375 152.03125 205.175781 152.625 205.917969 153.335938 C 206.332031 152.386719 206.746094 151.464844 207.371094 150.101562 Z M 235.710938 158.613281 C 236.453125 159.355469 237.28125 160.304688 237.371094 160.214844 C 238.585938 159.355469 239.863281 158.464844 240.78125 157.339844 C 241.109375 156.953125 240.78125 155.617188 240.308594 155.171875 C 239.921875 154.816406 238.617188 154.816406 238.230469 155.203125 C 237.3125 156.0625 236.691406 157.25 235.710938 158.613281 Z M 255.546875 164.277344 C 254.894531 162.765625 254.003906 161.519531 252.253906 161.847656 C 251.484375 161.996094 250.566406 162.738281 250.238281 163.449219 C 250 163.984375 250.445312 165.316406 250.949219 165.554688 C 252.640625 166.324219 254.152344 165.496094 255.546875 164.277344 Z M 213.980469 159.949219 C 214.128906 160.097656 214.457031 160.75 214.871094 160.808594 C 216.324219 160.988281 218.605469 158.792969 218.429688 157.339844 C 218.367188 156.835938 217.6875 156.09375 217.210938 156.035156 C 215.699219 155.796875 214.070312 157.636719 213.980469 159.949219 Z M 192.546875 146.632812 C 193.019531 146.007812 193.851562 145.386719 193.910156 144.703125 C 194 143.578125 193.378906 142.570312 191.925781 142.6875 C 190.828125 142.777344 189.550781 142.867188 189.523438 144.320312 C 189.492188 145.980469 190.828125 146.15625 192.546875 146.632812 Z M 191.570312 160.214844 C 190.945312 158.585938 190.351562 156.953125 189.671875 155.382812 C 189.550781 155.085938 188.8125 154.757812 188.574219 154.878906 C 188.21875 155.054688 187.863281 155.589844 187.804688 156.035156 C 187.597656 157.785156 189.046875 159.800781 191.570312 160.214844 Z M 191.570312 160.214844 " fill-opacity="1" fill-rule="nonzero"/><path fill="#252a30" d="M 89.171875 216.0625 C 91.957031 212.5625 95.1875 209.894531 99.84375 209.777344 C 105.210938 209.628906 110.574219 209.539062 115.941406 209.507812 C 125.132812 209.480469 134.292969 209.507812 143.480469 209.480469 C 151.425781 209.480469 159.371094 209.390625 167.316406 209.421875 C 171.378906 209.421875 175.441406 209.65625 179.503906 209.570312 C 185.964844 209.480469 192.429688 209.09375 198.890625 209.0625 C 206.597656 209.035156 214.277344 209.332031 221.984375 209.332031 C 228.6875 209.359375 235.386719 209.09375 242.085938 209.125 C 244.960938 209.125 247.808594 209.628906 250.683594 209.746094 C 252.402344 209.804688 254.152344 209.507812 255.902344 209.449219 C 256.820312 209.421875 257.738281 209.628906 258.65625 209.6875 C 259.371094 209.746094 260.050781 209.835938 260.761719 209.835938 C 264.824219 209.863281 268.886719 209.804688 272.976562 209.863281 C 280.269531 209.953125 285.636719 214.195312 287.179688 220.929688 C 289.253906 230.003906 281.871094 237.683594 273.808594 237.746094 C 260.378906 237.832031 246.949219 238.128906 233.488281 238.191406 C 223.941406 238.25 214.367188 237.980469 204.820312 237.980469 C 198.148438 237.980469 191.507812 238.308594 184.839844 238.367188 C 182.851562 238.367188 180.894531 237.894531 178.910156 237.714844 C 177.664062 237.597656 176.359375 237.535156 175.113281 237.65625 C 173.070312 237.832031 171.054688 238.367188 169.007812 238.398438 C 162.664062 238.398438 156.320312 238.160156 149.945312 238.160156 C 139.035156 238.160156 128.125 238.21875 117.1875 238.335938 C 115.496094 238.367188 114.667969 237.980469 114.074219 236.144531 C 110.632812 225.523438 102.71875 219.832031 92.285156 217.132812 C 91.335938 216.894531 90.414062 216.6875 89.46875 216.449219 C 89.4375 216.417969 89.40625 216.332031 89.171875 216.0625 Z M 230.40625 220.929688 C 229.695312 220.304688 229.128906 219.386719 228.449219 219.296875 C 226.964844 219.058594 225.574219 219.980469 224.949219 221.164062 C 224.476562 222.054688 223.558594 223.539062 225.007812 224.574219 C 226.699219 223.449219 228.328125 222.320312 230.40625 220.929688 Z M 154.214844 223.242188 C 154.304688 221.550781 153.382812 220.632812 151.871094 220.691406 C 151.132812 220.71875 150.125 221.285156 149.707031 221.90625 C 149.085938 222.886719 148.136719 224.070312 149.234375 225.199219 C 150.953125 224.515625 152.554688 223.894531 154.214844 223.242188 Z M 280.539062 221.195312 C 280.300781 221.34375 280.03125 221.519531 279.796875 221.667969 C 280.300781 223.152344 280.773438 224.636719 281.398438 226.472656 C 282.199219 225.316406 282.671875 224.636719 283.292969 223.714844 C 282.40625 222.886719 281.484375 222.054688 280.539062 221.195312 Z M 213.417969 214.3125 C 213.417969 214.640625 213.386719 214.996094 213.386719 215.324219 C 214.664062 215.765625 215.96875 216.210938 217.65625 216.804688 C 217.183594 215.261719 216.917969 214.433594 216.53125 213.277344 C 215.433594 213.632812 214.425781 213.957031 213.417969 214.3125 Z M 187.328125 223.507812 C 187.417969 224.84375 187.476562 225.910156 187.566406 227.007812 C 188.457031 226.355469 189.375 225.734375 190.203125 225.019531 C 190.441406 224.8125 190.414062 224.367188 190.53125 223.984375 C 189.582031 223.863281 188.78125 223.746094 187.328125 223.507812 Z M 167.882812 233.917969 C 166.042969 232.4375 164.769531 232.851562 163.316406 235.222656 C 164.945312 234.777344 166.25 234.394531 167.882812 233.917969 Z M 261.207031 222.261719 C 261.355469 222.441406 261.503906 222.617188 261.652344 222.765625 C 262.691406 221.90625 263.726562 221.046875 265.089844 219.890625 C 262.660156 219.652344 262.125 221.222656 261.207031 222.261719 Z M 261.207031 222.261719 " fill-opacity="1" fill-rule="nonzero"/><path fill="#252a30" d="M 74.496094 307.917969 C 75.445312 308.480469 76.15625 308.71875 76.542969 309.195312 C 84.128906 318.269531 94.089844 321.292969 105.503906 320.761719 C 127.769531 319.722656 148.699219 313.671875 168.710938 304.09375 C 171.914062 302.550781 174.375 301.808594 178.109375 303.824219 C 184.75 307.355469 191.449219 305.484375 197.46875 301.273438 C 198.089844 300.828125 198.714844 300.382812 199.335938 299.910156 C 200.285156 300.917969 201.144531 301.839844 202.003906 302.726562 C 190.796875 311.238281 192.074219 324.378906 200.90625 330.605469 C 197.765625 331.675781 194.859375 332.742188 191.894531 333.691406 C 177.191406 338.4375 162.277344 342.113281 146.890625 343.863281 C 132.898438 345.4375 118.933594 345.585938 105.328125 341.3125 C 89.527344 336.332031 79.269531 325.921875 74.851562 309.875 C 74.734375 309.371094 74.671875 308.898438 74.496094 307.917969 Z M 138.324219 321.976562 C 133.847656 322.007812 133.136719 322.597656 132.394531 326.335938 C 131.742188 329.628906 131.03125 332.921875 130.378906 336.210938 C 130.199219 337.160156 129.546875 338.289062 130.941406 338.882812 C 131.921875 339.296875 134.527344 338.4375 134.945312 337.605469 C 136.398438 334.757812 139.300781 334.316406 141.585938 336.597656 C 142.296875 337.308594 145.351562 337.429688 145.855469 336.539062 C 146.179688 335.945312 145.882812 334.757812 145.5 334.019531 C 143.628906 330.398438 141.675781 326.839844 139.65625 323.3125 C 139.300781 322.6875 138.589844 322.242188 138.324219 321.976562 Z M 150.863281 336.570312 C 152.820312 335.828125 154.867188 335.234375 156.734375 334.285156 C 158.214844 333.542969 159.078125 332.121094 159.105469 330.3125 C 159.164062 327.699219 157.859375 326.484375 154.273438 325.476562 C 153.148438 325.148438 151.28125 324.320312 151.28125 323.757812 C 151.308594 321.859375 153.175781 322.480469 154.421875 322.183594 C 155.042969 322.035156 155.84375 321.207031 155.875 320.671875 C 155.875 320.167969 154.957031 319.21875 154.453125 319.21875 C 153.058594 319.1875 151.605469 319.394531 150.300781 319.839844 C 147.484375 320.789062 146.089844 322.746094 146.328125 325.121094 C 146.535156 327.375 147.929688 328.5625 150.953125 329.363281 C 152.140625 329.6875 154.214844 329.449219 154.066406 331.230469 C 153.917969 332.980469 151.992188 332.832031 150.597656 332.832031 C 149.261719 332.800781 148.195312 333.1875 148.195312 334.699219 C 148.167969 336.449219 149.558594 336.183594 150.863281 336.570312 Z M 162.753906 333.128906 C 165.183594 332.179688 167.613281 331.554688 169.628906 330.3125 C 170.757812 329.597656 171.585938 327.878906 171.792969 326.484375 C 172.179688 323.816406 170.550781 322.539062 166.84375 321.710938 C 165.65625 321.441406 163.613281 321.828125 163.699219 319.929688 C 163.761719 318.238281 165.628906 318.742188 166.785156 318.359375 C 167.40625 318.152344 167.820312 317.351562 168.355469 316.816406 C 167.820312 316.3125 167.167969 315.332031 166.753906 315.421875 C 164.648438 315.894531 162.515625 316.429688 160.617188 317.410156 C 159.078125 318.238281 158.542969 319.988281 158.839844 321.828125 C 159.164062 323.695312 160.378906 324.765625 162.101562 325.296875 C 163.195312 325.625 164.382812 325.742188 165.480469 326.097656 C 166.011719 326.277344 166.875 326.898438 166.84375 327.167969 C 166.726562 327.761719 166.222656 328.5 165.6875 328.710938 C 164.738281 329.066406 163.671875 329.066406 162.664062 329.214844 C 161.449219 329.390625 160.972656 330.28125 161.179688 331.289062 C 161.242188 331.882812 162.011719 332.328125 162.753906 333.128906 Z M 185.789062 325.386719 C 187.417969 324.851562 189.078125 324.410156 190.679688 323.785156 C 191.777344 323.371094 192.695312 322.660156 191.925781 321.292969 C 191.183594 320.046875 190.234375 319.988281 188.988281 320.761719 C 186.765625 322.09375 185.222656 321.648438 184.097656 319.335938 C 183.59375 318.328125 183.269531 317.171875 183.089844 316.042969 C 182.675781 313.671875 183.535156 311.832031 186.351562 312.128906 C 187.714844 312.277344 188.160156 311.449219 188.1875 310.203125 C 188.21875 308.867188 187.417969 308.480469 186.320312 308.628906 C 185.105469 308.777344 183.859375 308.898438 182.765625 309.339844 C 178.375 311.152344 177.042969 316.222656 179.5625 321.265625 C 180.777344 323.785156 182.824219 325.121094 185.789062 325.386719 Z M 111.199219 339.476562 C 111.820312 339.386719 112.738281 339.355469 113.597656 339.148438 C 115.140625 338.761719 115.613281 337.605469 114.546875 336.449219 C 114.132812 335.976562 113.066406 335.796875 112.382812 335.917969 C 109.6875 336.359375 108.320312 335.472656 108.027344 332.714844 C 107.90625 331.765625 107.9375 330.785156 108.027344 329.804688 C 108.320312 326.960938 109.566406 326.039062 112.324219 326.78125 C 113.597656 327.136719 114.28125 326.75 114.667969 325.535156 C 115.109375 324.140625 114.339844 323.667969 113.214844 323.339844 C 110.101562 322.511719 107.164062 322.835938 105.0625 325.417969 C 102.628906 328.414062 102.273438 331.941406 103.757812 335.472656 C 105.0625 338.554688 107.816406 339.445312 111.199219 339.476562 Z M 117.75 331.050781 C 117.71875 331.050781 117.71875 331.050781 117.691406 331.050781 C 117.691406 333.070312 117.75 335.054688 117.660156 337.074219 C 117.601562 338.527344 118.28125 339.089844 119.617188 339.058594 C 122.078125 339.03125 124.539062 338.972656 127 339 C 128.511719 339 129.074219 338.289062 129.015625 336.835938 C 128.957031 335.382812 128.066406 335.144531 126.910156 335.203125 C 126.257812 335.234375 125.636719 335.324219 124.984375 335.351562 C 122.90625 335.410156 122.433594 334.96875 122.433594 332.921875 C 122.402344 330.28125 122.34375 327.613281 122.402344 324.972656 C 122.433594 323.25 121.457031 323.132812 120.152344 323.132812 C 118.785156 323.132812 117.660156 323.25 117.71875 325.0625 C 117.808594 327.046875 117.75 329.035156 117.75 331.050781 Z M 173.988281 312.457031 C 171.644531 312.515625 170.222656 313.671875 170.636719 315.035156 C 171.882812 319.128906 173.246094 323.164062 174.671875 327.195312 C 175.234375 328.769531 176.507812 328.203125 177.636719 327.820312 C 178.730469 327.433594 179.800781 327.078125 179.265625 325.535156 C 177.871094 321.5625 176.507812 317.585938 175.054688 313.640625 C 174.847656 313.078125 174.226562 312.691406 173.988281 312.457031 Z M 173.988281 312.457031 " fill-opacity="1" fill-rule="nonzero"/><path fill="#252a30" d="M 254.269531 297.714844 C 262.660156 306.464844 273.273438 306.523438 284.449219 304.152344 C 284.894531 304.0625 285.371094 304.003906 285.753906 303.796875 C 288.867188 301.925781 291.210938 303.113281 293.492188 305.425781 C 296.488281 308.453125 299.6875 311.269531 302.921875 314.324219 C 293.226562 325.742188 283.738281 336.867188 274.222656 348.078125 C 259.578125 337.457031 243.925781 329.660156 225.722656 327.582031 C 225.839844 327.34375 225.871094 327.109375 226.019531 326.960938 C 230.820312 322.363281 233.84375 316.695312 236.097656 310.558594 C 236.660156 309.015625 237.550781 308.066406 239.003906 307.234375 C 244.101562 304.210938 249.082031 300.976562 254.269531 297.714844 Z M 254.269531 297.714844 " fill-opacity="1" fill-rule="nonzero"/><path fill="#252a30" d="M 97.589844 200.34375 C 111.167969 200.34375 124.746094 200.375 138.355469 200.34375 C 144.933594 200.316406 151.515625 200.195312 158.097656 200.136719 C 167.023438 200.046875 175.945312 199.929688 184.867188 199.929688 C 194.976562 199.929688 205.085938 200.019531 215.167969 200.078125 C 218.695312 200.105469 222.222656 200.019531 225.78125 200.105469 C 227.558594 200.167969 229.339844 200.550781 231.117188 200.789062 C 231.503906 200.847656 231.886719 200.847656 232.273438 200.820312 C 239.507812 200.136719 246.710938 201.027344 253.945312 200.90625 C 263.578125 200.730469 273.214844 200.847656 282.878906 200.820312 C 283.265625 200.820312 283.648438 200.847656 284.035156 200.847656 C 286.050781 200.96875 287.324219 202.125 287.324219 203.902344 C 287.324219 205.683594 286.050781 206.929688 284.066406 206.988281 C 275.765625 207.167969 267.433594 207.34375 259.132812 207.433594 C 247.6875 207.523438 236.246094 207.582031 224.800781 207.582031 C 217.570312 207.582031 210.304688 207.433594 203.070312 207.433594 C 191.242188 207.402344 179.441406 207.402344 167.613281 207.433594 C 157.800781 207.460938 147.988281 207.550781 138.175781 207.582031 C 128.332031 207.582031 118.492188 207.492188 108.675781 207.523438 C 105.210938 207.523438 101.710938 207.878906 98.242188 207.820312 C 95.335938 207.757812 92.460938 207.433594 89.554688 207.105469 C 87.6875 206.898438 86.886719 205.59375 86.945312 203.84375 C 87.007812 202.125 87.984375 200.90625 89.644531 200.789062 C 92.285156 200.613281 94.953125 200.730469 97.589844 200.730469 C 97.589844 200.550781 97.589844 200.464844 97.589844 200.34375 Z M 97.589844 200.34375 " fill-opacity="1" fill-rule="nonzero"/><path fill="#252a30" d="M 289.816406 148.261719 C 292.664062 143.25 295.480469 138.328125 298.382812 133.195312 C 298.859375 135.804688 295.242188 154.34375 293.226562 159.683594 C 291.03125 158.4375 288.867188 157.160156 286.675781 155.972656 C 280.179688 152.476562 273.71875 148.976562 267.167969 145.59375 C 262.777344 143.339844 258.273438 141.234375 253.765625 139.21875 C 251.394531 138.148438 248.90625 137.347656 246.414062 136.546875 C 240.691406 134.679688 234.972656 132.871094 229.25 131.121094 C 221.984375 128.894531 214.574219 127.621094 206.925781 127.5625 C 205 127.53125 203.070312 127.265625 200.730469 127.085938 C 205.679688 118.1875 210.15625 109.230469 216.558594 101.371094 C 215.046875 107.332031 213.535156 113.296875 212.023438 119.199219 C 241.640625 118.988281 266.839844 130.410156 289.816406 148.261719 Z M 289.816406 148.261719 " fill-opacity="1" fill-rule="nonzero"/><g clip-path="url(#4692f1de5c)"><path fill="#252a30" d="M 311.308594 350.714844 C 309.5 346.476562 306.921875 342.828125 303.394531 340.007812 C 299.925781 337.25 296.191406 334.847656 292.425781 332.179688 C 297.289062 326.453125 302.269531 320.613281 307.484375 314.441406 C 304.433594 311.210938 301.4375 308.035156 298.355469 304.746094 C 301.082031 302.492188 303.839844 300.148438 306.65625 297.863281 C 307.011719 297.597656 307.839844 297.597656 308.226562 297.804688 C 309.828125 298.695312 311.398438 299.730469 312.941406 300.742188 C 313.472656 301.097656 313.859375 301.691406 314.394531 302.015625 C 321.300781 306.019531 325.570312 312.515625 329.957031 318.804688 C 332.714844 322.746094 335.117188 326.960938 337.515625 331.171875 C 330.789062 327.34375 323.464844 325.714844 316.023438 323.875 C 316.171875 333.246094 313.59375 341.90625 311.308594 350.714844 Z M 311.308594 350.714844 " fill-opacity="1" fill-rule="nonzero"/></g><path fill="#252a30" d="M 130.882812 300.949219 C 138.117188 306.96875 145.707031 306.582031 153.445312 302.578125 C 159.253906 299.582031 163.613281 294.839844 167.527344 289.707031 C 167.941406 289.171875 168.386719 288.609375 168.621094 288.285156 C 169.421875 291.722656 170.222656 295.253906 171.113281 299.140625 C 166.875 301.007812 162.1875 303.171875 157.445312 305.160156 C 140.519531 312.277344 122.90625 316.460938 104.558594 317.230469 C 96.820312 317.558594 89.613281 315.957031 83.417969 311.0625 C 82.886719 310.648438 82.410156 310.171875 81.550781 309.402344 C 91.1875 309.488281 98.777344 306.136719 104.289062 298.636719 C 110.664062 307.59375 122.523438 307.085938 130.882812 300.949219 Z M 130.882812 300.949219 " fill-opacity="1" fill-rule="nonzero"/><path fill="#252a30" d="M 257.175781 258.773438 C 257.796875 257.230469 258.421875 255.6875 259.042969 254.117188 C 260.644531 249.933594 258.242188 246.285156 253.765625 246.226562 C 249.171875 246.167969 244.578125 246.199219 239.953125 246.226562 C 239.449219 246.226562 238.765625 246.109375 238.4375 246.375 C 236.273438 248.066406 234.46875 246.671875 232.421875 246.019531 C 225.601562 243.882812 219.109375 245.011719 213.507812 249.371094 C 210.691406 251.566406 208.40625 254.472656 206.035156 257.199219 C 205.265625 258.089844 204.671875 258.65625 203.488281 258.328125 C 199.839844 257.289062 196.074219 256.519531 192.546875 255.183594 C 190.441406 254.382812 188.632812 252.722656 186.765625 251.476562 C 188.753906 244.386719 188.753906 244.386719 185.519531 240.886719 C 187.863281 241.097656 189.820312 241.125 191.71875 241.511719 C 194.621094 242.074219 197.496094 242.847656 200.375 243.585938 C 201.324219 243.824219 202.300781 244.03125 203.128906 244.535156 C 205.800781 246.109375 208.703125 245.664062 211.609375 245.871094 C 216.085938 246.199219 219.851562 244.0625 223.851562 242.90625 C 232.421875 240.414062 240.839844 240.742188 248.992188 243.914062 C 254.417969 246.019531 259.578125 246.257812 265.003906 244.566406 C 269.332031 243.230469 273.6875 241.984375 277.988281 240.621094 C 282.109375 239.316406 285.25 240.59375 287 245.101562 C 281.160156 244.714844 275.617188 245.574219 270.429688 248.242188 C 265.328125 250.855469 261.445312 254.917969 257.917969 259.425781 C 257.621094 259.21875 257.382812 259.011719 257.175781 258.773438 Z M 257.175781 258.773438 " fill-opacity="1" fill-rule="nonzero"/><path fill="#252a30" d="M 321.773438 111.367188 C 320.945312 107.214844 319.996094 103.417969 319.433594 99.5625 C 318.808594 95.441406 317.03125 91.820312 315.195312 88.175781 C 314.394531 86.574219 313.414062 85.058594 312.4375 83.367188 C 314.777344 82.835938 316.914062 83.367188 318.871094 84.496094 C 325.628906 88.382812 328.03125 94.582031 326.695312 102.171875 C 326.101562 105.582031 324.859375 108.726562 321.773438 111.367188 Z M 321.773438 111.367188 " fill-opacity="1" fill-rule="nonzero"/><path fill="#252a30" d="M 165.273438 245.664062 C 164.796875 246.492188 164.441406 247.175781 164.085938 247.828125 C 164.058594 247.621094 164.058594 247.441406 164.027344 247.234375 C 162.011719 246.910156 159.964844 246.347656 157.921875 246.257812 C 154.097656 246.109375 150.269531 246.285156 146.445312 246.199219 C 143.75 246.136719 141.613281 246.9375 140.191406 249.785156 C 138.589844 246.347656 135.714844 246.109375 132.660156 246.199219 C 129.371094 246.285156 126.050781 246.347656 122.757812 246.199219 C 118.996094 246.019531 116.058594 246.9375 114.667969 250.855469 C 114.785156 250.023438 114.933594 249.191406 115.050781 248.390625 C 115.171875 247.5625 115.289062 246.730469 115.378906 246.019531 C 117.484375 245.632812 119.46875 245.335938 121.425781 244.863281 C 124.359375 244.152344 127.265625 243.410156 130.140625 242.488281 C 136.308594 240.503906 142.503906 240.472656 148.757812 241.867188 C 150.507812 242.253906 152.199219 242.933594 153.949219 243.410156 C 157.03125 244.238281 160.113281 245.070312 163.226562 245.8125 C 163.761719 245.929688 164.382812 245.722656 165.273438 245.664062 Z M 165.273438 245.664062 " fill-opacity="1" fill-rule="nonzero"/><path fill="#252a30" d="M 161.269531 262.894531 C 161.953125 263.101562 162.425781 263.222656 163.226562 263.429688 C 161.152344 267.253906 159.136719 270.960938 157.121094 274.671875 C 156.972656 274.609375 156.824219 274.523438 156.675781 274.460938 C 158.1875 270.667969 159.699219 266.871094 161.269531 262.894531 Z M 161.269531 262.894531 " fill-opacity="1" fill-rule="nonzero"/><path fill="#252a30" d="M 109.921875 263.398438 C 109.179688 265.210938 108.558594 266.8125 107.816406 268.621094 C 106.898438 267.019531 106.128906 265.625 105.269531 264.113281 C 106.574219 262.511719 108.171875 263.429688 109.921875 263.398438 Z M 109.921875 263.398438 " fill-opacity="1" fill-rule="nonzero"/><path fill="#252a30" d="M 199.039062 262.71875 C 200.195312 262.71875 201.234375 262.71875 202.242188 262.71875 C 202.269531 262.804688 202.269531 262.894531 202.300781 262.953125 C 201.886719 263.042969 201.46875 263.132812 200.757812 263.28125 C 201.292969 263.636719 201.617188 263.84375 201.972656 264.050781 C 201.46875 265.179688 200.964844 266.21875 200.402344 267.433594 C 199.929688 265.800781 199.515625 264.347656 199.039062 262.71875 Z M 199.039062 262.71875 " fill-opacity="1" fill-rule="nonzero"/><path fill="#252a30" d="M 82.175781 273.335938 C 85.640625 276.332031 86.441406 280.574219 84.457031 283.566406 C 82.796875 286.03125 79.089844 286.503906 75.265625 284.488281 C 77.519531 280.808594 79.800781 277.160156 82.175781 273.335938 Z M 82.175781 273.335938 " fill-opacity="1" fill-rule="nonzero"/><path fill="#252a30" d="M 137.050781 327.640625 C 137.554688 328.621094 138.144531 329.570312 138.5 330.605469 C 138.621094 330.933594 137.96875 331.914062 137.789062 331.882812 C 137.199219 331.792969 136.1875 331.40625 136.128906 331.050781 C 136.011719 330.015625 136.308594 328.917969 136.425781 327.847656 C 136.632812 327.789062 136.839844 327.699219 137.050781 327.640625 Z M 137.050781 327.640625 " fill-opacity="1" fill-rule="nonzero"/></svg>